<svg xmlns="http://www.w3.org/2000/svg" width="1920" height="1080" viewBox="0 0 508 285.8">
  <g color="#000" paint-order="markers stroke fill">
    <path fill="#ff050c" d="M0 0v285.7h508V0H0zm.5.5h507v284.7H.5V.5z"/>
    <path fill="none" d="M.3.3h507.4v285.2H.3z"/>
  </g>
  <path fill="#ff050c" d="M.3.3h25.1v15H.3z" paint-order="markers stroke fill"/>
  <path fill="#fff" d="M7 10.8H3V9.7h1.2V6.4H3v-1h.6l.5-.1.3-.3.1-.4h1.4v5.1H7zm6.4-2.1-.1.9-.5.7q-.3.3-.8.4-.4.2-1 .2l-1-.1-.8-.5q-.4-.4-.6-1T8.4 8q0-.8.2-1.4.2-.6.6-1.1.4-.5 1-.7.7-.3 1.6-.3h.7l.4.1v1.2h-.1l-.4-.1h-.6q-.8 0-1.2.3-.5.4-.6 1.1l.7-.3.8-.1h.6l.6.3.5.7q.2.4.2 1zm-1.8 1 .2-.4v-1l-.3-.4-.3-.1H10v.5l.1.8.3.5.2.2h.7q.2 0 .3-.2zm4.8-1.9h-1.6V6h1.6zm0 3h-1.6V9h1.6zm6.4-3.5q0 .8-.2 1.5t-.7 1.1q-.4.5-1 .7-.7.3-1.6.3h-.6l-.5-.1V9.6h.2l.3.1H20q.3 0 .5-.3L21 9q.2-.3.2-.7l-.6.3-.8.1H19l-.5-.3q-.4-.3-.6-.7-.2-.4-.2-1 0-1 .7-1.6.7-.6 1.8-.6l1 .1.8.5q.4.4.6 1l.1 1.2zm-1.6-.2-.1-.8-.3-.5-.3-.2H20q-.2 0-.3.2l-.2.3v1q0 .2.2.3l.4.2h.8l.4-.1v-.4z" aria-label="16:9"/>
  <g fill="#ff050c" color="#000" paint-order="markers stroke fill">
    <path d="M25.4 0v285.8h457.2V0H25.4zm.5.5h456.2v284.7H25.9V.5z"/>
    <path fill-opacity=".1" d="M25.7.3h456.6v285.2H25.7z"/>
  </g>
  <path fill="#fb0014" d="M461.7.3h20.6v15h-20.6z" paint-order="markers stroke fill"/>
  <path fill="#fff" d="M470 9q0 .9-.7 1.4-.7.5-2 .5l-1-.1-.9-.4-.5-.6-.1-.7q0-.5.3-.8.2-.4 1-.7-.6-.2-.9-.6t-.2-.9q0-.7.6-1.2.7-.4 1.8-.4t1.8.4q.6.4.6 1.1 0 .5-.2.8l-.9.6q.7.2 1 .7t.3 1zm-1.7-2.8q0-.3-.3-.5-.2-.2-.6-.2h-.3q-.2 0-.3.2l-.2.1v.7l.5.2.3.2.5.1.3-.4v-.4zm.1 3-.1-.5-.6-.4-.4-.1-.5-.2-.3.4-.1.5q0 .4.3.7.3.2.8.2h.3l.3-.1.2-.2.1-.4zm4.5-1.5h-1.6V6.1h1.6zm0 3h-1.6V9.2h1.6zm6.4-2q0 .5-.2.9l-.5.7q-.4.3-.9.4-.5.2-1.1.2l-1.3-.1-.8-.3V9.2h.2l.8.3.8.2h.6l.5-.3.2-.3v-.7l-.3-.3-.5-.2h-1.3l-.6.2h-.2V4.6h4.4v1.2h-2.9v1h1.6l.7.3.6.6q.2.4.2 1z" aria-label="8:5"/>
  <g fill="#ff050c" color="#000" paint-order="markers stroke fill">
    <path d="M63.5 0v285.8h381V0h-381zm.5.5h380v284.8H64V.5z"/>
    <path fill-opacity=".1" d="M63.7.2h380.6v285.3H63.7z"/>
    <path d="M75.4 0v285.8h357.2V0H75.4zm.5.5H432v284.8H76V.5z"/>
    <path fill-opacity=".1" d="M75.6.2h356.8v285.3H75.6z"/>
    <path d="M111.1 0v285.8H397V0H111zm.4.4h285v285h-285V.4z"/>
    <path fill-opacity=".1" d="M111.3.2h285.4v285.4H111.3z"/>
    <path d="M173.6 0v285.8h160.8V0H173.6zm.3.3H334v285.1H174V.3z"/>
    <path fill-opacity=".2" d="M173.7.2h160.6v285.4H173.7z"/>
  </g>
  <path fill="#ff050c" d="M173.7.2H199v15h-25.2z" paint-order="markers stroke fill"/>
  <path fill="#fff" d="M181 7.2q0 .8-.2 1.5-.2.6-.6 1-.4.6-1 .8-.7.3-1.6.3h-.6l-.5-.1V9.5h.5q.2.2.6.2l.7-.1.5-.3.4-.4q.2-.3.2-.7l-.6.3-.8.1h-.7l-.6-.3-.5-.7q-.2-.4-.2-1 0-1 .7-1.6.7-.6 1.8-.6l1 .1.8.5q.3.3.5.9.2.5.2 1.3zm-1.6-.2v-.8q-.1-.4-.3-.5-.1-.2-.3-.2h-.6q-.2 0-.3.2l-.2.3-.1.5V7l.3.3.4.2h.8l.3-.1V7zm4.6.6h-1.5V6h1.6zm0 3h-1.5V9h1.6zm6.2.1h-4.1V9.6h1.3V6.3H186v-1h.6l.4-.1.3-.3.2-.4h1.3v5h1.3zm6.4-2.1-.2.9q-.1.4-.5.7-.3.3-.7.4l-1 .2q-.6 0-1-.2-.5-.1-.9-.4l-.5-1q-.2-.5-.2-1.3t.2-1.4q.1-.7.6-1.1.4-.5 1-.8.7-.2 1.6-.2h1.1v1.3h-.2l-.4-.1h-.6q-.8 0-1.2.3-.4.4-.5 1l.6-.2.8-.1h.7l.5.3q.4.2.6.6l.2 1zm-1.9.9.2-.3.1-.6v-.5l-.3-.3-.4-.1h-1.1V9l.3.5.3.2h.6q.2 0 .3-.2z" aria-label="9:16"/>
  <path fill="#ff050c" d="M63.7.2h19.8v15.2H63.7z" paint-order="markers stroke fill"/>
  <path fill="#fff" d="M71.7 9.3H71v1.5h-1.5V9.3h-3V8.2l2.9-3.6H71v3.6h.8zm-2.3-1.1V6l-1.8 2.2zm5.1-.5H73V6.1h1.5zm0 3H73V9.1h1.5zm6-2.8q.2.1.3.4t0 .6v.8q-.2.4-.6.6l-.8.4q-.5.2-1.2.2t-1.3-.2q-.5 0-.9-.2V9h.2l.8.4 1 .2h.5l.4-.3q.2 0 .3-.2v-.8l-.4-.3h-1.3V7h.9l.4-.1.3-.3V6q-.1-.2-.3-.2l-.3-.1h-1.3l-.8.5h-.2V4.8l1-.2 1.1-.1h1l.8.3.5.5q.2.3.1.7 0 .5-.3 1-.3.3-.8.4l.4.2q.3 0 .5.3z" aria-label="4:3"/>
  <path fill="#ff050c" d="M412.6.2h19.8v15.1h-19.8z" paint-order="markers stroke fill"/>
  <path fill="#fff" d="m420 8.6-.1 1-.6.6q-.3.4-.8.5-.5.2-1.2.2t-1.2-.2q-.5 0-.8-.2V9h.1l.8.4.9.1h.6q.3 0 .4-.2l.3-.3v-.8l-.3-.2q-.2-.2-.6-.2h-1.2l-.6.1h-.2V4.6h4.4v1.2h-3v1h1.7l.6.3q.4.2.6.6.2.4.2 1zm3-.9h-1.5V6.1h1.6zm0 3h-1.5V9.1h1.6zm6.7-1.4h-.9v1.4h-1.5V9.3h-3V8.1l3-3.5h1.5v3.6h.9zm-2.4-1.1V6l-1.8 2.2z" aria-label="5:4"/>
  <path fill="#ff050c" d="M111.3.2h19.8v15.1h-19.8z" paint-order="markers stroke fill"/>
  <path fill="#fff" d="M118.6 10.7h-4.1v-1h1.3V6.3h-1.3v-1h.5l.5-.2q.2 0 .3-.3l.1-.4h1.4v5.1h1.3zm3.3-3h-1.6V6h1.6zm0 3h-1.6V9.1h1.6zm6.1 0h-4.1v-1h1.3V6.3h-1.3v-1h.6l.4-.2q.2 0 .3-.3l.2-.4h1.3v5.1h1.3z" aria-label="1:1"/>
</svg>