<svg xmlns="http://www.w3.org/2000/svg" viewBox="0 0 508 285.75">
  <g opacity="1">
    <g stroke="#ff050c" stroke-width=".45" paint-order="markers stroke fill">
      <path fill="none" d="M.27.27h507.46v285.21H.27z"/>
      <g fill="#ff050c">
        <path fill-opacity=".05" d="M25.66.25h456.69v285.24H25.66z"/>
        <path fill-opacity=".1" d="M63.73.23h380.53v285.28H63.73z"/>
        <path fill-opacity=".12" d="M75.63.23h356.74v285.3H75.63z"/>
        <path fill-opacity=".15" d="M111.33.2h285.35v285.35H111.33z"/>
        <path fill-opacity=".2" d="M173.72.15h160.56V285.6H173.72z"/>
      </g>
    </g>
    <path fill="#ff050c" d="M.27 25.27v-25h15v25zm467.08-.02v-25h15v25zm-293.63-.1v-25h15v25zm-109.99.08v-25h15v25zm353.64 0v-25h15v25zm-306.04-.03V.2h15v25z" paint-order="markers stroke fill"/>
    <g fill="#fff" stroke-width=".25" font-family="sans-serif" font-size="10" font-weight="bold" letter-spacing="0" word-spacing="0">
      <text x="-22.99" y="10.84" transform="rotate(-90)">9:16</text>
      <text x="-20.99" y="74.31" transform="rotate(-90)">3:4</text>
      <text x="-20.99" y="121.91" transform="rotate(-90)">1:1</text>
      <text x="-23.99" y="184.29" transform="rotate(-90)">16:9</text>
      <text x="-20.99" y="427.88" transform="rotate(-90)">4:5</text>
      <text x="-20.99" y="477.92" transform="rotate(-90)">5:8</text>
    </g>
  </g>
</svg>